<svg xmlns="http://www.w3.org/2000/svg" width="24" height="24" fill="none" viewBox="0 0 24 24">
  <path
    fill="#9edbff"
    d="M20 5.7a16.2 16.2 0 0 0-4-1.3l-.2.4c-.1.3-.3.7-.4 1-2-.3-3.9-.3-5.8 0a11.4 11.4 0 0 0-.6-1.4A16 16 0 0 0 5 5.7C2.5 9.5 1.8 13.2 2.2 16.8A16 16 0 0 0 7 19.2l1-1.5c-.8-.3-1.5-.7-2.2-1.2l.5-.4c4.2 2 8.8 2 13 0l.5.4c-.7.5-1.5.9-2.2 1.2l1 1.5a16 16 0 0 0 4.8-2.4c.5-4.2-.7-7.9-3.4-11Zm-8.2 8.8c-.8 0-1.5-.7-1.5-1.6 0-.8.7-1.6 1.5-1.6.9 0 1.6.8 1.5 1.6 0 .9-.7 1.6-1.5 1.6Zm5.4 0c-.8 0-1.5-.7-1.5-1.6 0-.8.7-1.6 1.5-1.6.9 0 1.6.8 1.5 1.6 0 .9-.7 1.6-1.5 1.6Z"
  />
</svg>
