<svg xmlns="http://www.w3.org/2000/svg" width="24" height="24" fill="none" viewBox="0 0 24 24">
  <path
    fill="#9edbff"
    d="M12 2a10 10 0 0 0-3.2 19.5c.5.1.7-.2.7-.5v-1.8c-2.9.7-3.5-1.2-3.5-1.2-.5-1.1-1.1-1.4-1.1-1.4-.9-.6 0-.6 0-.6 1 .1 1.6 1 1.6 1 .9 1.5 2.3 1 2.9.8.1-.6.4-1 .6-1.3-2.3-.3-4.6-1.1-4.6-5A4 4 0 0 1 6.5 8c-.1-.3-.5-1.3.1-2.7 0 0 .8-.3 2.8 1A9.6 9.6 0 0 1 12 6c.9 0 1.7.1 2.6.3 2-1.3 2.8-1 2.8-1 .6 1.4.2 2.4.1 2.7a4 4 0 0 1 1.1 2.7c0 3.9-2.4 4.7-4.6 5 .4.3.7 1 .7 2v3c0 .3.2.6.7.5A10 10 0 0 0 12 2Z"
  />
</svg>
